<svg width="83" height="84" viewBox="0 0 83 84" fill="none" xmlns="http://www.w3.org/2000/svg">
<g filter="url(#filter0_d_16_73)">
<path d="M30.1111 53.7777L17.4444 58L21.6667 45.3333" stroke="white" stroke-width="2.5" stroke-linecap="round" stroke-linejoin="round"/>
<path d="M30.1111 53.7778C30.1111 53.7778 32.8118 55.7778 38.5556 55.7778C48.9876 55.7778 57.4444 47.3209 57.4444 36.8889C57.4444 26.4568 48.9876 18 38.5556 18C28.1235 18 19.6667 26.4568 19.6667 36.8889C19.6667 42.4444 21.6667 45.3333 21.6667 45.3333" stroke="white" stroke-width="2.5" stroke-linecap="round" stroke-linejoin="round"/>
</g>
<circle cx="38.5" cy="36.5" r="12.5" fill="white"/>
<path d="M48.5 36.5C48.5 42.0228 44.0228 46.5 38.5 46.5C32.9772 46.5 28.5 42.0228 28.5 36.5C28.5 30.9771 32.9772 26.5 38.5 26.5C44.0228 26.5 48.5 30.9771 48.5 36.5Z" fill="#B8A27D"/>
<path d="M43.5 36.5C43.5 39.2614 41.2614 41.5 38.5 41.5C35.7386 41.5 33.5 39.2614 33.5 36.5C33.5 33.7386 35.7386 31.5 38.5 31.5C41.2614 31.5 43.5 33.7386 43.5 36.5Z" fill="white"/>
<rect x="34" y="45" width="9" height="5" fill="#B8A27D"/>
<rect x="34" y="23" width="9" height="5" fill="#B8A27D"/>
<rect x="44" y="34" width="9" height="5" fill="#B8A27D"/>
<rect x="23" y="34" width="9" height="5" fill="#B8A27D"/>
<defs>
<filter id="filter0_d_16_73" x="0.194412" y="0.75" width="82.5" height="82.5" filterUnits="userSpaceOnUse" color-interpolation-filters="sRGB">
<feFlood flood-opacity="0" result="BackgroundImageFix"/>
<feColorMatrix in="SourceAlpha" type="matrix" values="0 0 0 0 0 0 0 0 0 0 0 0 0 0 0 0 0 0 127 0" result="hardAlpha"/>
<feOffset dx="4" dy="4"/>
<feGaussianBlur stdDeviation="10"/>
<feComposite in2="hardAlpha" operator="out"/>
<feColorMatrix type="matrix" values="0 0 0 0 0 0 0 0 0 0 0 0 0 0 0 0 0 0 0.25 0"/>
<feBlend mode="normal" in2="BackgroundImageFix" result="effect1_dropShadow_16_73"/>
<feBlend mode="normal" in="SourceGraphic" in2="effect1_dropShadow_16_73" result="shape"/>
</filter>
</defs>
</svg>
