<svg width="105" height="42" viewBox="0 0 105 42" fill="none" xmlns="http://www.w3.org/2000/svg">
<rect width="105" height="42" rx="21" fill="#47402E"/>
<path d="M51.1866 15.76C50.8133 15.3067 50.4533 15.0067 50.1066 14.86C49.7599 14.7 49.4133 14.62 49.0666 14.62C48.1999 14.62 47.5666 15.0267 47.1666 15.84C46.7799 16.64 46.5866 17.7533 46.5866 19.18C46.5866 19.86 46.6266 20.4867 46.7066 21.06C46.7999 21.62 46.9533 22.1 47.1666 22.5C47.3799 22.9 47.6599 23.2133 48.0066 23.44C48.3666 23.6667 48.8133 23.78 49.3466 23.78C49.8133 23.78 50.2666 23.7267 50.7066 23.62C51.1599 23.5 51.5733 23.3667 51.9466 23.22L52.6666 25.46C52.2533 25.6333 51.7333 25.7867 51.1066 25.92C50.4799 26.0533 49.7599 26.12 48.9466 26.12C46.8933 26.12 45.3933 25.54 44.4466 24.38C43.4999 23.2067 43.0266 21.5467 43.0266 19.4C43.0266 18.36 43.1466 17.4067 43.3866 16.54C43.6399 15.6733 44.0133 14.9267 44.5066 14.3C45.0133 13.66 45.6399 13.1667 46.3866 12.82C47.1466 12.46 48.0399 12.28 49.0666 12.28C49.5999 12.28 50.0666 12.3267 50.4666 12.42C50.8799 12.5133 51.2399 12.64 51.5466 12.8C51.8533 12.9467 52.1199 13.12 52.3466 13.32C52.5866 13.52 52.7999 13.7267 52.9866 13.94L51.1866 15.76ZM59.246 18.84C59.0993 18.84 58.9393 18.88 58.766 18.96C58.5926 19.04 58.426 19.1667 58.266 19.34C58.106 19.5 57.9726 19.7133 57.866 19.98C57.7593 20.2333 57.706 20.54 57.706 20.9V26H54.546V20.8C54.546 20 54.486 19.34 54.366 18.82C54.2593 18.2867 54.1326 17.8533 53.986 17.52C53.826 17.1467 53.646 16.8467 53.446 16.62L55.986 15.82C56.0926 15.9533 56.206 16.1067 56.326 16.28C56.4193 16.4267 56.5193 16.6133 56.626 16.84C56.7326 17.0667 56.8193 17.3267 56.886 17.62C57.2193 16.98 57.6126 16.52 58.066 16.24C58.5326 15.96 59.0793 15.82 59.706 15.82C59.986 15.82 60.2326 15.8467 60.446 15.9C60.6726 15.94 60.8593 15.9867 61.006 16.04L60.186 19.06C60.0926 19.0067 59.966 18.96 59.806 18.92C59.6593 18.8667 59.4726 18.84 59.246 18.84ZM61.0093 21.26C61.0093 20.3667 61.1359 19.58 61.3893 18.9C61.6559 18.2067 62.0159 17.6333 62.4693 17.18C62.9359 16.7133 63.4759 16.36 64.0893 16.12C64.7026 15.88 65.3693 15.76 66.0893 15.76C66.7159 15.76 67.2493 15.84 67.6893 16C68.1293 16.1467 68.4893 16.36 68.7693 16.64C69.0493 16.9067 69.2559 17.2267 69.3893 17.6C69.5226 17.96 69.5893 18.3533 69.5893 18.78C69.5893 19.26 69.4693 19.7133 69.2293 20.14C68.9893 20.5667 68.6426 20.9467 68.1893 21.28C67.7493 21.6 67.2093 21.8667 66.5693 22.08C65.9426 22.2933 65.2293 22.4333 64.4293 22.5C64.5226 22.9 64.6893 23.2267 64.9293 23.48C65.1826 23.72 65.5626 23.84 66.0693 23.84C66.3626 23.84 66.6759 23.8067 67.0093 23.74C67.3426 23.6733 67.6493 23.6 67.9293 23.52C68.2626 23.4267 68.5893 23.32 68.9093 23.2L69.5093 25.28C69.1493 25.4533 68.7559 25.6067 68.3293 25.74C67.9693 25.8467 67.5493 25.9467 67.0693 26.04C66.6026 26.1333 66.1026 26.18 65.5693 26.18C64.7559 26.18 64.0559 26.06 63.4693 25.82C62.8959 25.58 62.4226 25.2467 62.0493 24.82C61.6893 24.3933 61.4226 23.88 61.2493 23.28C61.0893 22.6667 61.0093 21.9933 61.0093 21.26ZM65.6893 18.02C65.4359 18.02 65.2159 18.0933 65.0293 18.24C64.8559 18.3867 64.7159 18.58 64.6093 18.82C64.5026 19.06 64.4226 19.3267 64.3693 19.62C64.3159 19.9133 64.2826 20.2 64.2693 20.48C64.6693 20.4667 65.0026 20.4067 65.2693 20.3C65.5493 20.1933 65.7759 20.06 65.9493 19.9C66.1226 19.74 66.2493 19.5667 66.3293 19.38C66.4093 19.1933 66.4493 19.02 66.4493 18.86C66.4493 18.6067 66.3759 18.4067 66.2293 18.26C66.0959 18.1 65.9159 18.02 65.6893 18.02ZM79.5796 21.18C79.5796 21.98 79.6329 22.6467 79.7396 23.18C79.8462 23.7133 79.9729 24.14 80.1196 24.46C80.2796 24.8467 80.4662 25.1467 80.6796 25.36L78.1396 26.16C77.9929 26.0267 77.8596 25.86 77.7396 25.66C77.6329 25.4867 77.5262 25.28 77.4196 25.04C77.3262 24.7867 77.2462 24.4933 77.1796 24.16C76.9529 24.7867 76.6196 25.2733 76.1796 25.62C75.7396 25.9533 75.1596 26.12 74.4396 26.12C73.7862 26.12 73.2129 26 72.7196 25.76C72.2396 25.52 71.8396 25.1867 71.5196 24.76C71.1996 24.32 70.9596 23.7933 70.7996 23.18C70.6529 22.5667 70.5796 21.8867 70.5796 21.14C70.5796 20.38 70.6996 19.6733 70.9396 19.02C71.1929 18.3667 71.5396 17.8067 71.9796 17.34C72.4196 16.86 72.9462 16.4867 73.5596 16.22C74.1729 15.9533 74.8529 15.82 75.5996 15.82C76.0129 15.82 76.4529 15.8533 76.9196 15.92C77.3862 15.9733 77.8129 16.04 78.1996 16.12C78.5862 16.1867 78.9062 16.2533 79.1596 16.32C79.4262 16.3733 79.5662 16.4 79.5796 16.4V21.18ZM74.9596 23.8C75.1596 23.8 75.3462 23.7133 75.5196 23.54C75.7062 23.3667 75.8662 23.1333 75.9996 22.84C76.1329 22.5467 76.2329 22.2133 76.2996 21.84C76.3796 21.4533 76.4196 21.0467 76.4196 20.62V18.3C76.3262 18.26 76.1929 18.2267 76.0196 18.2C75.8596 18.16 75.7196 18.14 75.5996 18.14C75.2796 18.14 75.0129 18.2133 74.7996 18.36C74.5862 18.4933 74.4129 18.6867 74.2796 18.94C74.1596 19.18 74.0729 19.4733 74.0196 19.82C73.9662 20.1667 73.9396 20.54 73.9396 20.94C73.9396 21.3133 73.9462 21.6733 73.9596 22.02C73.9729 22.3533 74.0129 22.6533 74.0796 22.92C74.1596 23.1867 74.2662 23.4 74.3996 23.56C74.5329 23.72 74.7196 23.8 74.9596 23.8ZM81.1185 16.04H82.7585L83.0985 13.98L85.8385 13.38V16.04H88.1985L87.8185 18.36H85.8385V22.82C85.8385 23.4067 86.1451 23.7 86.7585 23.7C87.0918 23.7 87.4118 23.6667 87.7185 23.6C87.8785 23.56 88.0385 23.52 88.1985 23.48L88.7385 25.6C88.4718 25.6933 88.0985 25.8 87.6185 25.92C87.1518 26.0267 86.5785 26.08 85.8985 26.08C84.8985 26.08 84.1118 25.8733 83.5385 25.46C82.9785 25.0467 82.6985 24.3467 82.6985 23.36V18.36H81.1185V16.04ZM88.9975 21.26C88.9975 20.3667 89.1242 19.58 89.3775 18.9C89.6442 18.2067 90.0042 17.6333 90.4575 17.18C90.9242 16.7133 91.4642 16.36 92.0775 16.12C92.6909 15.88 93.3575 15.76 94.0775 15.76C94.7042 15.76 95.2375 15.84 95.6775 16C96.1175 16.1467 96.4775 16.36 96.7575 16.64C97.0375 16.9067 97.2442 17.2267 97.3775 17.6C97.5109 17.96 97.5775 18.3533 97.5775 18.78C97.5775 19.26 97.4575 19.7133 97.2175 20.14C96.9775 20.5667 96.6309 20.9467 96.1775 21.28C95.7375 21.6 95.1975 21.8667 94.5575 22.08C93.9309 22.2933 93.2175 22.4333 92.4175 22.5C92.5109 22.9 92.6775 23.2267 92.9175 23.48C93.1709 23.72 93.5509 23.84 94.0575 23.84C94.3509 23.84 94.6642 23.8067 94.9975 23.74C95.3309 23.6733 95.6375 23.6 95.9175 23.52C96.2509 23.4267 96.5775 23.32 96.8975 23.2L97.4975 25.28C97.1375 25.4533 96.7442 25.6067 96.3175 25.74C95.9575 25.8467 95.5375 25.9467 95.0575 26.04C94.5909 26.1333 94.0909 26.18 93.5575 26.18C92.7442 26.18 92.0442 26.06 91.4575 25.82C90.8842 25.58 90.4109 25.2467 90.0375 24.82C89.6775 24.3933 89.4109 23.88 89.2375 23.28C89.0775 22.6667 88.9975 21.9933 88.9975 21.26ZM93.6775 18.02C93.4242 18.02 93.2042 18.0933 93.0175 18.24C92.8442 18.3867 92.7042 18.58 92.5975 18.82C92.4909 19.06 92.4109 19.3267 92.3575 19.62C92.3042 19.9133 92.2709 20.2 92.2575 20.48C92.6575 20.4667 92.9909 20.4067 93.2575 20.3C93.5375 20.1933 93.7642 20.06 93.9375 19.9C94.1109 19.74 94.2375 19.5667 94.3175 19.38C94.3975 19.1933 94.4375 19.02 94.4375 18.86C94.4375 18.6067 94.3642 18.4067 94.2175 18.26C94.0842 18.1 93.9042 18.02 93.6775 18.02Z" fill="white"/>
<path d="M21 14.3333V27.6667M14.3333 21H27.6666M37.6666 21C37.6666 30.2048 30.2047 37.6667 21 37.6667C11.7952 37.6667 4.33331 30.2048 4.33331 21C4.33331 11.7953 11.7952 4.33334 21 4.33334C30.2047 4.33334 37.6666 11.7953 37.6666 21Z" stroke="#F3F3F3" stroke-width="4" stroke-linecap="round" stroke-linejoin="round"/>
</svg>
