<svg width="31" height="30" viewBox="0 0 31 30" fill="none" xmlns="http://www.w3.org/2000/svg">
<path d="M11.7866 11C12.1001 10.1089 12.7188 9.35747 13.5333 8.87883C14.3477 8.4002 15.3052 8.22524 16.2362 8.38494C17.1673 8.54464 18.0117 9.02869 18.6201 9.75136C19.2284 10.474 19.5614 11.3887 19.56 12.3333C19.56 15 15.56 16.3333 15.56 16.3333M15.6666 21.6667H15.68M29 15C29 22.3638 23.0304 28.3333 15.6666 28.3333C8.30285 28.3333 2.33331 22.3638 2.33331 15C2.33331 7.63619 8.30285 1.66666 15.6666 1.66666C23.0304 1.66666 29 7.63619 29 15Z" stroke="white" stroke-width="3" stroke-linecap="round" stroke-linejoin="round"/>
</svg>